<?xml version="1.0" encoding="UTF-8"?>
<!DOCTYPE svg PUBLIC "-//W3C//DTD SVG 1.1//EN" "http://www.w3.org/Graphics/SVG/1.1/DTD/svg11.dtd">
<!-- Creator: CorelDRAW 2020 (64 Bit) -->
<svg xmlns="http://www.w3.org/2000/svg" xml:space="preserve" width="1.21918cm" height="1.21918cm" version="1.1" style="shape-rendering:geometricPrecision; text-rendering:geometricPrecision; image-rendering:optimizeQuality; fill-rule:evenodd; clip-rule:evenodd"
viewBox="0 0 1219.18 1219.18"
 xmlns:xlink="http://www.w3.org/1999/xlink"
 xmlns:xodm="http://www.corel.com/coreldraw/odm/2003">
 <defs>
  <style type="text/css">
   <![CDATA[
    .fil1 {fill:#ED1C24}
    .fil0 {fill:#ED1C24;fill-rule:nonzero}
   ]]>
  </style>
 </defs>
 <g id="Camada_x0020_1">
  <metadata id="CorelCorpID_0Corel-Layer"/>
  <g id="_2571081423040">
   <g id="_2829353885664">
    <path class="fil0" d="M722.39 635.04l0 -51.4c0.06,-5.06 -0.86,-10.08 -2.7,-14.77 -1.85,-4.7 -4.59,-8.97 -8.05,-12.57 -7.17,-7.57 -18.44,-11.33 -34.14,-11.33l-107.91 0c-5.49,0.38 -10.82,2.05 -15.57,4.9 -6.13,3.21 -11.62,7.58 -16.18,12.86 -4.27,4.58 -6.74,10.6 -6.95,16.93l0 49c-0.11,10.64 3.16,21.03 9.3,29.61 3.16,4.07 7.23,7.29 11.87,9.39 4.63,2.09 9.7,3 14.75,2.64l120.42 0c8.95,0.29 17.73,-2.56 24.88,-8.09 6.78,-5.42 10.24,-14.44 10.24,-27.12l0.04 -0.05zm70.1 23.58c0.08,13.63 -3.87,26.95 -11.3,38.24 -7.11,11.18 -16.52,20.63 -27.57,27.69 -8.5,5.99 -18.42,9.51 -28.72,10.19l-187.74 0c-14.53,0.3 -28.81,-3.96 -40.92,-12.2 -11.52,-7.83 -20.98,-18.45 -27.52,-30.93 -6.03,-10.81 -9.35,-22.99 -9.64,-35.44l0 -94.09c0,-10.2 2.24,-20.26 6.57,-29.44 4.29,-9.27 10.14,-17.68 17.28,-24.85 6.83,-6.99 14.75,-12.77 23.42,-17.11 7.52,-3.93 15.8,-6.07 24.24,-6.25l184.8 0c10.67,0.61 21.1,3.47 30.64,8.4 12.83,6.13 23.95,15.47 32.34,27.16 9.42,12.6 14.12,28.77 14.12,48.52l0 90.11z"/>
    <g>
     <path class="fil0" d="M236.11 708.37l-128 -152.8c-2.47,-1.56 -5.34,-2.32 -8.24,-2.19 -2.41,0.1 -4.72,0.97 -6.61,2.5 -1.11,0.79 -2,1.86 -2.61,3.09 -0.6,1.24 -0.89,2.61 -0.85,3.99l0 171.66 -69.12 0 0 -250.05 66.64 0c21.9,0 38.79,0.92 54.83,19.38l119.48 144.05c2.5,3.95 5.73,7.36 9.52,10.02 2.85,1.55 6.03,2.32 9.25,2.23 4.06,0 6.57,-1.27 7.55,-3.76 1.11,-3.39 1.6,-6.97 1.46,-10.54l0 -161.38 70.15 0 0 250.05 -87.26 0c-10.97,0 -23.13,-10.59 -36.22,-26.25l0.03 0zm0 0l0 0 0 0z"/>
    </g>
    <path class="fil1" d="M1198.5 484.43l0 61.17c-3.2,-0.42 -6.64,-0.63 -10.33,-0.63l-185.64 0c-5.49,0.38 -10.82,2.05 -15.57,4.9 -6.13,3.21 -11.62,7.58 -16.17,12.86 -4.28,4.58 -6.75,10.6 -6.96,16.93l0 49c-0.1,10.64 3.16,21.03 9.3,29.61 3.16,4.07 7.23,7.29 11.87,9.39 4.64,2.09 9.7,3 14.76,2.64l198.14 0c0.2,0.01 0.4,0.02 0.6,0.02l0 64.42 -228.4 0c-14.53,0.3 -28.81,-3.96 -40.92,-12.2 -11.52,-7.83 -20.98,-18.45 -27.52,-30.93 -6.03,-10.81 -9.35,-22.99 -9.64,-35.44l0 -94.09c0,-10.2 2.24,-20.26 6.57,-29.44 4.29,-9.27 10.14,-17.68 17.28,-24.85 6.83,-6.99 14.75,-12.77 23.43,-17.11 7.51,-3.93 15.8,-6.07 24.23,-6.25l234.97 0z"/>
   </g>
  </g>
 </g>
</svg>
