<svg width="199" height="24" viewBox="0 0 199 24" fill="none" xmlns="http://www.w3.org/2000/svg">
<path d="M180.573 23.9665H178.917V5.76971H167V0H185.427V0.0334955H199V5.81996H187.082V24H180.573V23.9665Z" fill="#ED1C24"/>
<path d="M156.631 10.9689C156.663 11.9377 156.385 12.8896 155.843 13.6692C155.318 14.3977 154.428 14.7619 153.173 14.7619L141.506 14.7284V15.9007C141.513 16.5259 141.744 17.1248 142.152 17.5753C142.321 17.804 142.533 17.9914 142.776 18.1244C143.019 18.2574 143.286 18.3328 143.558 18.3457H162.661V23.9975H142.342C140.936 24.0372 139.556 23.5969 138.403 22.7416C137.355 21.9653 136.489 20.9442 135.87 19.7566C135.37 18.9041 135.072 17.9361 135 16.9348V0H157.62C158.247 0.0273311 158.86 0.207828 159.412 0.527512C160.064 0.875082 160.668 1.31598 161.207 1.83792C161.713 2.32681 162.15 2.89086 162.503 3.51256C162.806 4.01392 162.977 4.59201 163 5.18719V5.73145H149.86H145.831H145.803H143.763H143.625H141.506V9.25238H156.643L156.631 10.9689Z" fill="#ED1C24"/>
<path d="M120.707 21.4808L108.998 6.81457C108.772 6.66518 108.51 6.59205 108.245 6.60462C108.024 6.61391 107.812 6.69766 107.64 6.84395C107.538 6.92033 107.457 7.02245 107.401 7.14117C107.347 7.25989 107.32 7.39148 107.323 7.52415V24H101V0H107.097C109.099 0 110.645 0.0881742 112.112 1.86005L123.042 15.6865C123.27 16.0657 123.566 16.3924 123.912 16.648C124.173 16.7962 124.464 16.87 124.759 16.8621C125.13 16.8621 125.36 16.7404 125.45 16.5011C125.551 16.1753 125.596 15.8324 125.583 15.4891V0H132V24H124.018C123.015 24 121.902 22.9839 120.704 21.4808" fill="#ED1C24"/>
<path d="M99 24L88.3551 3.97834C87.9994 3.31599 87.5741 2.69595 87.0878 2.12925C86.5153 1.49566 85.8247 0.988867 85.0579 0.639363C84.0727 0.190858 83.0044 -0.0265736 81.9291 0.00259C80.9522 -0.0138067 79.9823 0.174808 79.0774 0.557104C78.1726 0.9394 77.3516 1.50748 76.6638 2.22721C76.2117 2.70609 75.8371 3.25741 75.5541 3.85997L65 24H82.7713C83.3297 24 83.8654 23.7707 84.2611 23.3623C84.657 22.9538 84.8813 22.3995 84.8847 21.8203V19.6119H74.6844L80.7682 8.24796C80.9262 7.93004 81.1064 7.62441 81.3073 7.33365C81.3833 7.25259 81.4756 7.19004 81.5777 7.15051C81.6797 7.11098 81.7891 7.09546 81.8976 7.10506C82.0147 7.09387 82.1328 7.11006 82.2432 7.15244C82.3535 7.19482 82.4533 7.26232 82.5351 7.34997C82.7395 7.63345 82.9211 7.93376 83.0781 8.24796L91.5744 24H99Z" fill="#ED1C24"/>
<path d="M58.4818 14.4403V9.51221C58.4875 9.02708 58.4021 8.54553 58.2305 8.09556C58.0589 7.6456 57.8045 7.23613 57.4821 6.89089C56.8156 6.16531 55.7681 5.80462 54.3082 5.80462H44.2751C43.7645 5.84042 43.2688 6.00123 42.8271 6.27436C42.2574 6.58239 41.7474 7.00064 41.3235 7.50742C40.9266 7.94609 40.6964 8.52386 40.6768 9.13055V13.8279C40.6671 14.8484 40.9706 15.8446 41.5417 16.6673C41.8351 17.0572 42.2136 17.366 42.6448 17.5669C43.0762 17.7678 43.5471 17.8549 44.0172 17.8207H55.2128C56.0449 17.8485 56.861 17.5747 57.5257 17.0448C58.1565 16.5247 58.4778 15.6608 58.4778 14.4444L58.4818 14.4403ZM64.9999 16.7009C65.0067 18.0068 64.6403 19.2844 63.9486 20.3665C63.2876 21.4384 62.4128 22.3444 61.3858 23.0214C60.5955 23.5957 59.6729 23.9334 58.7158 23.9986H41.26C39.9087 24.0271 38.5813 23.6189 37.4554 22.8284C36.384 22.0786 35.5048 21.0598 34.8966 19.8632C34.3359 18.8269 34.0278 17.6595 34 16.466V7.44451C34.0002 6.46702 34.209 5.50219 34.611 4.62189C35.0096 3.73394 35.5536 2.92745 36.2177 2.23964C36.853 1.56955 37.5889 1.0154 38.3957 0.599755C39.0945 0.223005 39.8648 0.01799 40.6491 0H57.8312C58.8228 0.0591396 59.7923 0.333238 60.6796 0.805264C61.8728 1.3929 62.907 2.28859 63.6868 3.40979C64.5622 4.6177 64.9999 6.16811 64.9999 8.06102V16.7009Z" fill="#ED1C24"/>
<path d="M34.2541 0L23.5272 19.7011C23.1673 20.3534 22.7394 20.9648 22.2507 21.5246C21.6767 22.1463 20.9851 22.6449 20.2171 22.9906C19.2181 23.4321 18.1352 23.6447 17.0458 23.6132C16.0623 23.6279 15.0861 23.44 14.1764 23.061C13.2666 22.6819 12.4425 22.1196 11.7536 21.4081C11.2984 20.9489 10.9207 20.417 10.6358 19.8336L0 0H7.38916L15.8843 15.5038C16.044 15.8159 16.2269 16.1153 16.4314 16.3995C16.5074 16.4799 16.6003 16.5419 16.7033 16.5809C16.8062 16.6198 16.9166 16.6348 17.026 16.6244C17.144 16.6354 17.263 16.6195 17.3741 16.5777C17.4853 16.5361 17.5857 16.4697 17.6682 16.3834C17.8726 16.1057 18.0542 15.8115 18.2113 15.5038L26.7659 0H34.2541Z" fill="#ED1C24"/>
</svg>
